<svg width="100" height="56" viewBox="0 0 100 56" fill="none" xmlns="http://www.w3.org/2000/svg">
<g clip-path="url(#clip0_0_3584)">
<path d="M1.72837 22.8208H0V41.0064H6.04931L6.26536 39.4528H1.72837V22.8208Z" fill="black"/>
<path d="M16.1486 37.0317C16.1486 38.6651 15.6624 39.6452 14.2041 39.6452C12.7457 39.6452 12.2596 38.5562 12.2596 37.0317V22.8208H10.5312V37.0317C10.5312 39.863 11.7736 41.2496 14.1753 41.2496C16.5771 41.2496 17.9021 39.7795 17.9021 36.9772V22.8208H16.1449V37.0317H16.1486Z" fill="black"/>
<path d="M30.5153 22.8208H28.7329L26.4896 29.6812H26.4644L24.2751 22.8208H22.3847L25.4382 31.5325L22.2227 41.0064H23.9798L26.4104 33.2748H26.4356L28.8121 41.0064H30.7025L27.4366 31.3147L30.5153 22.8208Z" fill="black"/>
<path d="M50.8233 38.0371H50.7441C50.5532 34.9336 49.2318 27.202 48.6124 22.8208H46.83C46.1819 27.202 44.8604 35.3982 44.6444 38.1206H44.6156C44.4535 35.3692 43.4813 27.369 42.8872 22.8208H41.0508L43.5605 41.0064H45.4509C46.1279 36.734 47.2585 29.2747 47.6366 26.1421H47.6654C47.9643 28.9734 49.1777 36.705 49.7719 41.0064H51.6911L54.4457 22.8208H52.6633C52.098 27.34 51.0177 35.0171 50.8269 38.0371H50.8233Z" fill="black"/>
<path d="M60.6542 22.8208L57.6836 41.0064H59.412L60.3302 34.9917H63.434L64.4062 41.0064H66.2174L63.1136 22.8208H60.6578H60.6542ZM60.5714 33.3837C61.0827 29.9281 61.7597 25.79 61.8137 24.3998H61.8929C62.0549 26.0332 62.5158 29.1622 63.2144 33.3837H60.5678H60.5714Z" fill="black"/>
<path d="M68.7031 24.4252H71.645V41.0064H73.3481V24.4252H76.2648V22.8208H68.7031V24.4252Z" fill="black"/>
<path d="M85.7124 36.5417C85.7124 38.3385 85.4712 39.6706 83.9552 39.6706C82.5257 39.6706 82.0936 38.3929 82.0936 36.4328V27.0424C82.0936 25.3545 82.4465 24.1566 83.9048 24.1566C85.3631 24.1566 85.6332 25.4924 85.6332 26.9879V27.7756H87.3904V27.0678C87.3904 24.7265 86.8755 22.5776 83.9336 22.5776C81.5823 22.5776 80.3438 24.1276 80.3438 27.0678V36.3239C80.3438 38.9918 80.8298 41.2496 83.9084 41.2496C86.9871 41.2496 87.4732 38.7995 87.4732 36.4328V35.8339H85.716V36.5417H85.7124Z" fill="black"/>
<path d="M98.2965 22.8208V30.4435H94.3537V22.8208H92.6289V41.0064H94.3537V32.0225H98.2965V41.0064H99.9997V22.8208H98.2965Z" fill="black"/>
<path d="M37.2219 51.1228C36.5522 50.611 36.4117 50.3605 36.4117 49.6418C36.4117 49.0538 36.5522 48.5855 37.0707 48.5855C37.5892 48.5855 37.7188 48.9993 37.7188 49.62V49.9249H38.4102V49.5982C38.4102 48.6508 38.1077 47.9866 37.0923 47.9757C36.0012 47.9648 35.7312 48.836 35.7312 49.7507C35.7312 50.8179 36.1093 51.1772 36.887 51.787C37.6432 52.3751 37.8268 52.7235 37.8268 53.5947C37.8268 54.4659 37.6 54.8361 37.0707 54.8361C36.5414 54.8361 36.2929 54.455 36.2929 53.7363V53.3225H35.6016V53.7363C35.6016 54.6945 35.9364 55.4459 37.0599 55.4459C38.2481 55.4459 38.5182 54.5203 38.5182 53.4967C38.5182 52.2988 38.2049 51.885 37.2219 51.1228Z" fill="black"/>
<path d="M42.9031 53.7581C42.9031 54.4115 42.7088 54.8035 42.1255 54.8035C41.5421 54.8035 41.3476 54.3679 41.3476 53.7581V48.0737H40.6562V53.7581C40.6562 54.8906 41.1533 55.446 42.1147 55.446C43.0761 55.446 43.6054 54.8579 43.6054 53.7363V48.0737H42.9031V53.7581Z" fill="black"/>
<path d="M47.2882 48.0737H46.0352V55.348H46.7265V52.092H47.245C48.5413 52.092 48.8438 51.2753 48.8438 50.2081V49.7616C48.8438 48.6182 48.3469 48.0737 47.2882 48.0737ZM48.1524 50.1972C48.1524 50.9704 48.0336 51.4931 47.1802 51.4931H46.7265V48.6727H47.245C48.012 48.6727 48.1524 49.2062 48.1524 49.8052V50.1972Z" fill="black"/>
<path d="M52.2609 48.0737H51.0078V55.348H51.6992V52.092H52.2177C53.514 52.092 53.8164 51.2753 53.8164 50.2081V49.7616C53.8164 48.6182 53.3195 48.0737 52.2609 48.0737ZM53.1251 50.1972C53.1251 50.9704 53.0062 51.4931 52.1529 51.4931H51.6992V48.6727H52.2177C52.9846 48.6727 53.1251 49.2062 53.1251 49.8052V50.1972Z" fill="black"/>
<path d="M56.6679 48.0737H55.9766V55.348H58.3963L58.4827 54.7273H56.6679V48.0737Z" fill="black"/>
<path d="M61.5262 51.6782H61.5154C61.3857 51.0357 60.932 49.424 60.5648 48.0737H59.8086L61.1265 52.4187C61.1481 52.4731 61.1589 52.5276 61.1589 52.6038V55.348H61.8502V52.6582C61.8502 52.5602 61.861 52.5058 61.8718 52.4513L63.2005 48.0737H62.4768C62.1311 49.3587 61.6558 51.0139 61.5262 51.6782Z" fill="black"/>
<path d="M70.5983 11.7752C70.5983 11.4558 70.339 11.1945 70.0222 11.1945H56.6273C56.8757 10.7698 57.081 10.316 57.2394 9.84053C57.261 9.84053 57.2826 9.84779 57.3078 9.84779H74.8112C75.1281 9.84779 75.3873 9.58644 75.3873 9.26702C75.3873 8.94759 75.1281 8.68624 74.8112 8.68624H57.5275C57.5959 8.28333 57.6391 7.86952 57.6391 7.44846C57.6391 7.33594 57.6283 7.22704 57.6211 7.11451H74.8112C75.1281 7.11451 75.3873 6.85316 75.3873 6.53374C75.3873 6.21431 75.1281 5.95296 74.8112 5.95296H57.4878C57.3762 5.39396 57.1926 4.864 56.9657 4.35582H70.0222C70.339 4.35582 70.5983 4.09448 70.5983 3.77505C70.5983 3.45562 70.339 3.19427 70.0222 3.19427H56.3104C54.9745 1.26319 52.76 0 50.2503 0C47.7405 0 45.5261 1.26682 44.1902 3.19427H30.6656C30.3488 3.19427 30.0895 3.45562 30.0895 3.77505C30.0895 4.09448 30.3488 4.35582 30.6656 4.35582H43.5312C43.3368 4.78415 43.1819 5.23425 43.0703 5.7025H25.873C25.5561 5.7025 25.2969 5.96385 25.2969 6.28328C25.2969 6.6027 25.5561 6.86405 25.873 6.86405H42.8867C42.8723 7.05644 42.8579 7.24882 42.8579 7.44846C42.8579 7.78241 42.8867 8.11272 42.9299 8.43578H25.873C25.5561 8.43578 25.2969 8.69713 25.2969 9.01656C25.2969 9.33598 25.5561 9.59733 25.873 9.59733H43.1711C43.3404 10.16 43.5744 10.6936 43.8661 11.1945H30.662C30.3452 11.1945 30.0859 11.4558 30.0859 11.7752C30.0859 12.0947 30.3452 12.356 30.662 12.356H44.6979C46.0518 13.9096 48.0322 14.8969 50.2467 14.8969C52.4612 14.8969 54.4416 13.9096 55.7955 12.356H70.0222C70.339 12.356 70.5983 12.0947 70.5983 11.7752ZM50.2467 13.7934C46.7719 13.7934 43.9525 10.9513 43.9525 7.44846C43.9525 3.94565 46.7719 1.10348 50.2467 1.10348C53.7214 1.10348 56.5408 3.94565 56.5408 7.44846C56.5408 10.9513 53.7214 13.7934 50.2467 13.7934Z" fill="black"/>
</g>
<defs>
<clipPath id="clip0_0_3584">
<rect width="100" height="56" fill="white"/>
</clipPath>
</defs>
</svg>
