<svg width="15" height="15" viewBox="0 0 15 15" fill="none" xmlns="http://www.w3.org/2000/svg">
<path d="M3.2959 1.20117C2.91504 1.20117 2.56592 1.29639 2.24854 1.48682C1.93115 1.67725 1.67725 1.93115 1.48682 2.24854C1.29639 2.56592 1.20117 2.91504 1.20117 3.2959V11.7041C1.20117 12.085 1.29639 12.4341 1.48682 12.7515C1.67725 13.0688 1.93115 13.3228 2.24854 13.5132C2.56592 13.7036 2.91504 13.7988 3.2959 13.7988H11.7041C12.085 13.7988 12.4341 13.7036 12.7515 13.5132C13.0688 13.3228 13.3228 13.0688 13.5132 12.7515C13.7036 12.4341 13.7988 12.085 13.7988 11.7041V3.2959C13.7988 2.91504 13.7036 2.56592 13.5132 2.24854C13.3228 1.93115 13.0688 1.67725 12.7515 1.48682C12.4341 1.29639 12.085 1.20117 11.7041 1.20117H3.2959ZM3.2959 1.80176H11.7041C11.9775 1.80176 12.229 1.86768 12.4585 1.99951C12.688 2.13135 12.8687 2.31201 13.0005 2.5415C13.1323 2.771 13.1982 3.02246 13.1982 3.2959V11.7041C13.1982 11.9775 13.1323 12.229 13.0005 12.4585C12.8687 12.688 12.688 12.8687 12.4585 13.0005C12.229 13.1323 11.9775 13.1982 11.7041 13.1982H3.2959C3.02246 13.1982 2.771 13.1323 2.5415 13.0005C2.31201 12.8687 2.13135 12.688 1.99951 12.4585C1.86768 12.229 1.80176 11.9775 1.80176 11.7041V3.2959C1.80176 3.02246 1.86768 2.771 1.99951 2.5415C2.13135 2.31201 2.31201 2.13135 2.5415 1.99951C2.771 1.86768 3.02246 1.80176 3.2959 1.80176Z" fill="#212121"/>
</svg>
