<svg width="50" height="15" viewBox="0 0 50 15" fill="none" xmlns="http://www.w3.org/2000/svg">
<g clip-path="url(#clip0_0_3683)">
<path d="M45.2196 11.8567C45.2196 11.5351 44.9608 11.2719 44.6445 11.2719H31.2738C31.5218 10.8443 31.7267 10.3874 31.8848 9.90863C31.9064 9.90863 31.928 9.91594 31.9531 9.91594H49.4249C49.7412 9.91594 50 9.65278 50 9.33114C50 9.0095 49.7412 8.74635 49.4249 8.74635H32.1724C32.2407 8.34064 32.2838 7.92398 32.2838 7.5C32.2838 7.3867 32.273 7.27705 32.2658 7.16374H49.4249C49.7412 7.16374 50 6.90058 50 6.57895C50 6.25731 49.7412 5.99415 49.4249 5.99415H32.1329C32.0214 5.43129 31.8381 4.89766 31.6117 4.38596H44.6445C44.9608 4.38596 45.2196 4.12281 45.2196 3.80117C45.2196 3.47953 44.9608 3.21637 44.6445 3.21637H30.9575C29.624 1.27193 27.4136 0 24.9083 0C22.4031 0 20.1927 1.27558 18.8592 3.21637H5.35907C5.04277 3.21637 4.78398 3.47953 4.78398 3.80117C4.78398 4.12281 5.04277 4.38596 5.35907 4.38596H18.2014C18.0073 4.81725 17.8528 5.27047 17.7414 5.74196H0.575084C0.258787 5.74196 0 6.00512 0 6.32675C0 6.64839 0.258787 6.91155 0.575084 6.91155H17.5581C17.5437 7.10526 17.5293 7.29898 17.5293 7.5C17.5293 7.83626 17.5581 8.16886 17.6012 8.49415H0.575084C0.258787 8.49415 0 8.75731 0 9.07895C0 9.40059 0.258787 9.66374 0.575084 9.66374H17.842C18.0109 10.2303 18.2446 10.7675 18.5357 11.2719H5.35548C5.03918 11.2719 4.78039 11.5351 4.78039 11.8567C4.78039 12.1784 5.03918 12.4415 5.35548 12.4415H19.366C20.7174 14.0058 22.6943 15 24.9048 15C27.1152 15 29.0921 14.0058 30.4435 12.4415H44.6445C44.9608 12.4415 45.2196 12.1784 45.2196 11.8567ZM24.9048 13.8889C21.4363 13.8889 18.622 11.027 18.622 7.5C18.622 3.97295 21.4363 1.11111 24.9048 1.11111C28.3732 1.11111 31.1876 3.97295 31.1876 7.5C31.1876 11.027 28.3732 13.8889 24.9048 13.8889Z" fill="white"/>
</g>
<defs>
<clipPath id="clip0_0_3683">
<rect width="50" height="15" fill="white"/>
</clipPath>
</defs>
</svg>
