<svg width="21" height="19" viewBox="0 0 21 19" fill="none" xmlns="http://www.w3.org/2000/svg">
<g clip-path="url(#clip0_0_3608)">
<path d="M0.942403 8.5516C0.906146 8.40358 0.903482 8.24909 0.934615 8.09986C0.965741 7.95063 1.02985 7.81058 1.12207 7.69035C1.21429 7.57011 1.3322 7.47286 1.46684 7.40595C1.60148 7.33904 1.74933 7.30424 1.89915 7.3042H19.1009C19.2507 7.30424 19.3986 7.33904 19.5332 7.40595C19.6679 7.47286 19.7858 7.57011 19.878 7.69035C19.9702 7.81058 20.0343 7.95063 20.0655 8.09986C20.0966 8.24909 20.0939 8.40358 20.0577 8.5516L18.2714 15.8261C18.1648 16.2606 17.9185 16.6465 17.5717 16.9221C17.2251 17.1978 16.7979 17.3476 16.3579 17.3477H4.64217C4.20227 17.3476 3.77501 17.1978 3.42831 16.9221C3.0816 16.6465 2.83534 16.2606 2.72866 15.8261L0.942403 8.5526V8.5516Z" stroke="black" stroke-width="1.82609" stroke-linejoin="round"/>
<path d="M4.56543 6.39135L8.52195 0.913086H12.4785L16.435 6.39135" stroke="black" stroke-width="1.82609" stroke-linecap="round"/>
</g>
<defs>
<clipPath id="clip0_0_3608">
<rect width="21" height="18.2609" fill="white"/>
</clipPath>
</defs>
</svg>
