<svg width="114" height="22" viewBox="0 0 114 22" fill="none" xmlns="http://www.w3.org/2000/svg">
<g clip-path="url(#clip0_0_3666)">
<path d="M0 0.00585938H21.375V21.3809H0V0.00585938ZM23.1562 0.00585938H44.5312V21.3809H23.1562V0.00585938ZM46.3125 0.00585938H67.6875V21.3809H46.3125V0.00585938ZM69.4688 0.00585938H90.8438V21.3809H69.4688V0.00585938ZM92.625 0.00585938H114V21.3809H92.625V0.00585938Z" fill="#00B67A"/>
<path d="M10.6873 14.4116L13.9381 13.5878L15.2963 17.7737L10.6873 14.4116ZM18.1686 9.00107H12.4463L10.6873 3.61279L8.92832 9.00107H3.20605L7.83731 12.3409L6.07832 17.7292L10.7096 14.3894L13.5596 12.3409L18.1686 9.00107ZM33.8436 14.4116L37.0943 13.5878L38.4525 17.7737L33.8436 14.4116ZM41.3248 9.00107H35.6025L33.8436 3.61279L32.0846 9.00107H26.3623L30.9936 12.3409L29.2346 17.7292L33.8658 14.3894L36.7158 12.3409L41.3248 9.00107ZM56.9998 14.4116L60.2506 13.5878L61.6088 17.7737L56.9998 14.4116ZM64.4811 9.00107H58.7588L56.9998 3.61279L55.2408 9.00107H49.5186L54.1498 12.3409L52.3908 17.7292L57.0221 14.3894L59.8721 12.3409L64.4811 9.00107ZM80.1561 14.4116L83.4068 13.5878L84.765 17.7737L80.1561 14.4116ZM87.6373 9.00107H81.915L80.1561 3.61279L78.3971 9.00107H72.6748L77.3061 12.3409L75.5471 17.7292L80.1783 14.3894L83.0283 12.3409L87.6373 9.00107ZM103.312 14.4116L106.563 13.5878L107.921 17.7737L103.312 14.4116ZM110.794 9.00107H105.071L103.312 3.61279L101.553 9.00107H95.8311L100.462 12.3409L98.7033 17.7292L103.335 14.3894L106.185 12.3409L110.794 9.00107Z" fill="white"/>
</g>
<defs>
<clipPath id="clip0_0_3666">
<rect width="114" height="21.3864" fill="white"/>
</clipPath>
</defs>
</svg>
