<svg width="35" height="35" viewBox="0 0 35 35" fill="none" xmlns="http://www.w3.org/2000/svg">
<path d="M17.5 3.15438C22.1725 3.15438 22.7267 3.17188 24.5729 3.25646C29.3154 3.47229 31.5306 5.7225 31.7465 10.43C31.831 12.2748 31.8471 12.829 31.8471 17.5015C31.8471 22.1754 31.8296 22.7281 31.7465 24.5729C31.5292 29.276 29.3198 31.5306 24.5729 31.7465C22.7267 31.831 22.1754 31.8485 17.5 31.8485C12.8275 31.8485 12.2733 31.831 10.4285 31.7465C5.67438 31.5292 3.47083 29.2688 3.255 24.5715C3.17042 22.7267 3.15292 22.174 3.15292 17.5C3.15292 12.8275 3.17188 12.2748 3.255 10.4285C3.47229 5.7225 5.68167 3.47083 10.4285 3.255C12.2748 3.17188 12.8275 3.15438 17.5 3.15438ZM17.5 0C12.7473 0 12.1523 0.0204167 10.2856 0.105C3.93021 0.396667 0.398125 3.92292 0.106458 10.2842C0.0204167 12.1523 0 12.7473 0 17.5C0 22.2527 0.0204167 22.8492 0.105 24.7158C0.396667 31.0713 3.92292 34.6033 10.2842 34.895C12.1523 34.9796 12.7473 35 17.5 35C22.2527 35 22.8492 34.9796 24.7158 34.895C31.0654 34.6033 34.6063 31.0771 34.8935 24.7158C34.9796 22.8492 35 22.2527 35 17.5C35 12.7473 34.9796 12.1523 34.895 10.2856C34.6092 3.93604 31.0785 0.398125 24.7173 0.106458C22.8492 0.0204167 22.2527 0 17.5 0ZM17.5 8.51375C16.3199 8.51375 15.1514 8.74619 14.0611 9.19779C12.9708 9.64939 11.9802 10.3113 11.1458 11.1458C10.3113 11.9802 9.64939 12.9708 9.19779 14.0611C8.74619 15.1514 8.51375 16.3199 8.51375 17.5C8.51375 18.6801 8.74619 19.8486 9.19779 20.9389C9.64939 22.0292 10.3113 23.0198 11.1458 23.8542C11.9802 24.6887 12.9708 25.3506 14.0611 25.8022C15.1514 26.2538 16.3199 26.4863 17.5 26.4863C19.8833 26.4863 22.169 25.5395 23.8542 23.8542C25.5395 22.169 26.4863 19.8833 26.4863 17.5C26.4863 15.1167 25.5395 12.831 23.8542 11.1458C22.169 9.46051 19.8833 8.51375 17.5 8.51375ZM17.5 23.3333C15.9529 23.3333 14.4692 22.7188 13.3752 21.6248C12.2812 20.5308 11.6667 19.0471 11.6667 17.5C11.6667 15.9529 12.2812 14.4692 13.3752 13.3752C14.4692 12.2812 15.9529 11.6667 17.5 11.6667C19.0471 11.6667 20.5308 12.2812 21.6248 13.3752C22.7188 14.4692 23.3333 15.9529 23.3333 17.5C23.3333 19.0471 22.7188 20.5308 21.6248 21.6248C20.5308 22.7188 19.0471 23.3333 17.5 23.3333ZM26.8421 6.05938C26.5662 6.05938 26.293 6.11371 26.0382 6.21928C25.7833 6.32485 25.5517 6.47959 25.3566 6.67466C25.1616 6.86974 25.0068 7.10132 24.9013 7.35619C24.7957 7.61106 24.7414 7.88423 24.7414 8.1601C24.7414 8.43598 24.7957 8.70915 24.9013 8.96402C25.0068 9.21889 25.1616 9.45047 25.3566 9.64554C25.5517 9.84061 25.7833 9.99535 26.0382 10.1009C26.293 10.2065 26.5662 10.2608 26.8421 10.2608C27.3992 10.2608 27.9336 10.0395 28.3275 9.64554C28.7215 9.25158 28.9428 8.71725 28.9428 8.1601C28.9428 7.60296 28.7215 7.06863 28.3275 6.67466C27.9336 6.2807 27.3992 6.05938 26.8421 6.05938Z" fill="white"/>
</svg>
